<?xml version="1.0" encoding="iso-8859-1"?>
<!-- Generator: Adobe Illustrator 19.0.0, SVG Export Plug-In . SVG Version: 6.00 Build 0)  -->
<svg xmlns="http://www.w3.org/2000/svg" xmlns:xlink="http://www.w3.org/1999/xlink" version="1.1" id="Capa_1" x="0px" y="0px" viewBox="0 0 470 470" style="enable-background:new 0 0 470 470;" xml:space="preserve" width="512px" height="512px">
<g>
	<path d="M321.771,227.5H7.5c-4.142,0-7.5,3.358-7.5,7.5v227.5c0,4.142,3.358,7.5,7.5,7.5h314.271c4.142,0,7.5-3.358,7.5-7.5V235   C329.271,230.858,325.913,227.5,321.771,227.5z M314.271,455H15V242.5h299.271V455z" fill="#4253ff"/>
	<path d="M368.681,151.667H54.41c-4.142,0-7.5,3.358-7.5,7.5V205c0,4.142,3.358,7.5,7.5,7.5s7.5-3.358,7.5-7.5v-38.333h299.271   v212.5h-9.41c-4.142,0-7.5,3.358-7.5,7.5s3.358,7.5,7.5,7.5h16.91c4.142,0,7.5-3.358,7.5-7.5v-227.5   C376.181,155.024,372.823,151.667,368.681,151.667z" fill="#4253ff"/>
	<path d="M415.59,75.833H101.319c-4.142,0-7.5,3.358-7.5,7.5v45.833c0,4.142,3.358,7.5,7.5,7.5s7.5-3.358,7.5-7.5V90.833H408.09   v212.5h-9.409c-4.142,0-7.5,3.358-7.5,7.5s3.358,7.5,7.5,7.5h16.909c4.142,0,7.5-3.358,7.5-7.5v-227.5   C423.09,79.191,419.732,75.833,415.59,75.833z" fill="#4253ff"/>
	<path d="M462.5,0H148.229c-4.142,0-7.5,3.358-7.5,7.5v36.912c0,4.142,3.358,7.5,7.5,7.5s7.5-3.358,7.5-7.5V15H455v212.5h-9.41   c-4.142,0-7.5,3.358-7.5,7.5s3.358,7.5,7.5,7.5h16.91c4.142,0,7.5-3.358,7.5-7.5V7.5C470,3.358,466.642,0,462.5,0z" fill="#4253ff"/>
</g>
<g>
</g>
<g>
</g>
<g>
</g>
<g>
</g>
<g>
</g>
<g>
</g>
<g>
</g>
<g>
</g>
<g>
</g>
<g>
</g>
<g>
</g>
<g>
</g>
<g>
</g>
<g>
</g>
<g>
</g>
</svg>
